<svg xmlns="http://www.w3.org/2000/svg"  viewBox="0 0 100 100" width="100px" height="100px"><path fill="#c7ede6" d="M87.215,56.71C88.35,54.555,89,52.105,89,49.5c0-6.621-4.159-12.257-10.001-14.478 C78.999,35.015,79,35.008,79,35c0-11.598-9.402-21-21-21c-9.784,0-17.981,6.701-20.313,15.757C36.211,29.272,34.638,29,33,29 c-7.692,0-14.023,5.793-14.89,13.252C12.906,43.353,9,47.969,9,53.5C9,59.851,14.149,65,20.5,65c0.177,0,0.352-0.012,0.526-0.022 C21.022,65.153,21,65.324,21,65.5C21,76.822,30.178,86,41.5,86c6.437,0,12.175-2.972,15.934-7.614C59.612,80.611,62.64,82,66,82 c4.65,0,8.674-2.65,10.666-6.518C77.718,75.817,78.837,76,80,76c6.075,0,11-4.925,11-11C91,61.689,89.53,58.727,87.215,56.71z"/><path fill="#fff" d="M28.5,78h-10c-0.276,0-0.5-0.224-0.5-0.5s0.224-0.5,0.5-0.5h10c0.276,0,0.5,0.224,0.5,0.5 S28.777,78,28.5,78z"/><path fill="#fff" d="M31.5,78h-1c-0.276,0-0.5-0.224-0.5-0.5s0.224-0.5,0.5-0.5h1c0.276,0,0.5,0.224,0.5,0.5 S31.777,78,31.5,78z"/><path fill="#fff" d="M36.491,80H27.5c-0.276,0-0.5-0.224-0.5-0.5s0.224-0.5,0.5-0.5h8.991c0.276,0,0.5,0.224,0.5,0.5 S36.767,80,36.491,80z"/><path fill="#fff" d="M25.5,80h-1c-0.276,0-0.5-0.224-0.5-0.5s0.224-0.5,0.5-0.5h1c0.276,0,0.5,0.224,0.5,0.5 S25.777,80,25.5,80z"/><path fill="#fff" d="M22.5,80h-2c-0.276,0-0.5-0.224-0.5-0.5s0.224-0.5,0.5-0.5h2c0.276,0,0.5,0.224,0.5,0.5 S22.777,80,22.5,80z"/><path fill="#fff" d="M28.5,82h-2c-0.276,0-0.5-0.224-0.5-0.5s0.224-0.5,0.5-0.5h2c0.276,0,0.5,0.224,0.5,0.5 S28.776,82,28.5,82z"/><path fill="#fff" d="M31.5,73c-0.177,0-0.823,0-1,0c-0.276,0-0.5,0.224-0.5,0.5c0,0.276,0.224,0.5,0.5,0.5 c0.177,0,0.823,0,1,0c0.276,0,0.5-0.224,0.5-0.5C32,73.224,31.776,73,31.5,73z"/><path fill="#fff" d="M31.5,75c-0.177,0-4.823,0-5,0c-0.276,0-0.5,0.224-0.5,0.5c0,0.276,0.224,0.5,0.5,0.5 c0.177,0,4.823,0,5,0c0.276,0,0.5-0.224,0.5-0.5C32,75.224,31.776,75,31.5,75z"/><path fill="#fff" d="M36.5,77c-0.177,0-2.823,0-3,0c-0.276,0-0.5,0.224-0.5,0.5c0,0.276,0.224,0.5,0.5,0.5 c0.177,0,2.823,0,3,0c0.276,0,0.5-0.224,0.5-0.5C37,77.224,36.776,77,36.5,77z"/><path fill="#fff" d="M75.5,31h-10c-0.276,0-0.5-0.224-0.5-0.5s0.224-0.5,0.5-0.5h10c0.276,0,0.5,0.224,0.5,0.5 S75.776,31,75.5,31z"/><path fill="#fff" d="M79.5,31h-2c-0.276,0-0.5-0.224-0.5-0.5s0.224-0.5,0.5-0.5h2c0.276,0,0.5,0.224,0.5,0.5 S79.776,31,79.5,31z"/><path fill="#fff" d="M84.5,33h-10c-0.276,0-0.5-0.224-0.5-0.5s0.224-0.5,0.5-0.5h10c0.276,0,0.5,0.224,0.5,0.5 S84.777,33,84.5,33z"/><path fill="#fff" d="M72.5,33h-1c-0.276,0-0.5-0.224-0.5-0.5s0.224-0.5,0.5-0.5h1c0.276,0,0.5,0.224,0.5,0.5 S72.776,33,72.5,33z"/><path fill="#fff" d="M69.47,33H67.5c-0.276,0-0.5-0.224-0.5-0.5s0.224-0.5,0.5-0.5h1.97c0.276,0,0.5,0.224,0.5,0.5 S69.746,33,69.47,33z"/><path fill="#fff" d="M78.5,29h-5c-0.276,0-0.5-0.224-0.5-0.5s0.224-0.5,0.5-0.5h5c0.276,0,0.5,0.224,0.5,0.5 S78.777,29,78.5,29z"/><path fill="#fff" d="M75.5,35h-2c-0.276,0-0.5-0.224-0.5-0.5s0.224-0.5,0.5-0.5h2c0.276,0,0.5,0.224,0.5,0.5 S75.776,35,75.5,35z"/><g><path fill="#fdfcef" d="M30.5,43.5V44h3v-0.5c0,0,4.242,0,5.5,0c2.485,0,4.5-2.015,4.5-4.5 c0-2.333-1.782-4.229-4.055-4.455C39.467,34.364,39.5,34.187,39.5,34c0-2.485-2.015-4.5-4.5-4.5c-1.438,0-2.703,0.686-3.527,1.736 C31.333,28.6,29.171,26.5,26.5,26.5c-2.761,0-5,2.239-5,5c0,0.446,0.077,0.87,0.187,1.282C21.045,32.005,20.086,31.5,19,31.5 c-1.781,0-3.234,1.335-3.455,3.055C15.364,34.533,15.187,34.5,15,34.5c-2.485,0-4.5,2.015-4.5,4.5s2.015,4.5,4.5,4.5s9.5,0,9.5,0 H30.5z"/><path fill="#472b29" d="M26.5,26c-3.033,0-5.5,2.467-5.5,5.5c0,0.016,0,0.031,0,0.047C20.398,31.192,19.71,31,19,31 c-1.831,0-3.411,1.261-3.858,3.005C15.095,34.002,15.048,34,15,34c-2.757,0-5,2.243-5,5s2.243,5,5,5h15.5 c0.276,0,0.5-0.224,0.5-0.5S30.776,43,30.5,43H15c-2.206,0-4-1.794-4-4s1.794-4,4-4c0.117,0,0.23,0.017,0.343,0.032l0.141,0.019 c0.021,0.003,0.041,0.004,0.062,0.004c0.246,0,0.462-0.185,0.495-0.437C16.232,33.125,17.504,32,19,32 c0.885,0,1.723,0.401,2.301,1.1c0.098,0.118,0.241,0.182,0.386,0.182c0.078,0,0.156-0.018,0.228-0.056 c0.209-0.107,0.314-0.346,0.254-0.573C22.054,32.218,22,31.852,22,31.5c0-2.481,2.019-4.5,4.5-4.5 c2.381,0,4.347,1.872,4.474,4.263c0.011,0.208,0.15,0.387,0.349,0.45c0.05,0.016,0.101,0.024,0.152,0.024 c0.15,0,0.296-0.069,0.392-0.192C32.638,30.563,33.779,30,35,30c2.206,0,4,1.794,4,4c0,0.117-0.017,0.23-0.032,0.343l-0.019,0.141 c-0.016,0.134,0.022,0.268,0.106,0.373c0.084,0.105,0.207,0.172,0.34,0.185C41.451,35.247,43,36.949,43,39c0,2.206-1.794,4-4,4 h-5.5c-0.276,0-0.5,0.224-0.5,0.5s0.224,0.5,0.5,0.5H39c2.757,0,5-2.243,5-5c0-2.397-1.689-4.413-4.003-4.877 C39.999,34.082,40,34.041,40,34c0-2.757-2.243-5-5-5c-1.176,0-2.293,0.416-3.183,1.164C31.219,27.76,29.055,26,26.5,26L26.5,26z"/><path fill="#472b29" d="M25,33c-1.403,0-2.609,0.999-2.913,2.341C21.72,35.119,21.301,35,20.875,35 c-1.202,0-2.198,0.897-2.353,2.068C18.319,37.022,18.126,37,17.937,37c-1.529,0-2.811,1.2-2.918,2.732 C15.01,39.87,15.114,39.99,15.251,40c0.006,0,0.012,0,0.018,0c0.13,0,0.24-0.101,0.249-0.232c0.089-1.271,1.151-2.268,2.419-2.268 c0.229,0,0.47,0.042,0.738,0.127c0.022,0.007,0.045,0.01,0.067,0.01c0.055,0,0.11-0.02,0.156-0.054 C18.962,37.537,19,37.455,19,37.375c0-1.034,0.841-1.875,1.875-1.875c0.447,0,0.885,0.168,1.231,0.473 c0.047,0.041,0.106,0.063,0.165,0.063c0.032,0,0.063-0.006,0.093-0.019c0.088-0.035,0.148-0.117,0.155-0.212 C22.623,34.512,23.712,33.5,25,33.5c0.208,0,0.425,0.034,0.682,0.107c0.023,0.007,0.047,0.01,0.07,0.01 c0.109,0,0.207-0.073,0.239-0.182c0.038-0.133-0.039-0.271-0.172-0.309C25.517,33.04,25.256,33,25,33L25,33z"/><path fill="#472b29" d="M38.883,34.5c-1.326,0-2.508,0.897-2.874,2.182c-0.038,0.133,0.039,0.271,0.172,0.309 C36.205,36.997,36.228,37,36.25,37c0.109,0,0.209-0.072,0.24-0.182C36.795,35.748,37.779,35,38.883,35 c0.117,0,0.23,0.014,0.342,0.029c0.012,0.002,0.023,0.003,0.035,0.003c0.121,0,0.229-0.092,0.246-0.217 c0.019-0.137-0.077-0.263-0.214-0.281C39.158,34.516,39.022,34.5,38.883,34.5L38.883,34.5z"/></g><g><path fill="#9f8066" d="M76.201,59.75c-4.223,0-6.951-2.786-6.951-7.099c0-4.565,2.708-7.401,7.066-7.401 c2.823,0,5.945,1.228,6.405,4.646h-2.78c-0.341-1.677-1.67-2.67-3.596-2.67c-1.3,0-4.324,0.528-4.324,5.425 c0,2.363,1.095,5.123,4.18,5.123c1.96,0,3.345-1.21,3.739-3.25h2.761C82.039,57.945,79.797,59.75,76.201,59.75z"/><path fill="#472b29" d="M76.316,45.5c3.38,0,5.623,1.539,6.111,4.147h-2.289c-0.43-1.658-1.847-2.67-3.794-2.67 c-1.375,0-4.574,0.553-4.574,5.675c0,2.478,1.16,5.373,4.43,5.373c1.993,0,3.472-1.234,3.942-3.25h2.251 c-0.709,3.095-2.838,4.726-6.192,4.726c-4.071,0-6.701-2.688-6.701-6.848C69.5,49.194,71.291,45.5,76.316,45.5 M76.316,45 C71.438,45,69,48.359,69,52.652C69,56.835,71.553,60,76.201,60c3.815,0,6.196-2.038,6.799-5.726h-3.27 c-0.317,2.038-1.637,3.25-3.529,3.25c-2.84,0-3.93-2.506-3.93-4.873c0-4.321,2.381-5.175,4.074-5.175 c1.808,0,3.127,0.937,3.386,2.67h0.005H83C82.685,46.652,79.758,45,76.316,45L76.316,45z M83,54.274h0.005H83z"/></g><g><polygon fill="#00a5a5" points="18.175,59.3 28.24,40.7 49.825,40.7 39.76,59.3"/><path fill="#472b29" d="M48.651,41.4l-9.308,17.2H19.349l9.308-17.2H48.651 M51,40H27.823L17,60h23.177L51,40L51,40z"/></g><g><path fill="#472b29" d="M39.207,53.695c-0.042,0-0.083-0.01-0.122-0.031c-0.121-0.067-0.164-0.22-0.097-0.341l3.009-5.401 c0.066-0.121,0.219-0.164,0.34-0.097s0.164,0.22,0.097,0.341l-3.009,5.401C39.38,53.649,39.294,53.695,39.207,53.695z"/></g><g><path fill="#472b29" d="M37.784,56.25h-5.409c-0.138,0-0.25-0.112-0.25-0.25s0.112-0.25,0.25-0.25h5.262l0.692-1.242 c0.066-0.121,0.219-0.164,0.34-0.097c0.121,0.067,0.164,0.22,0.097,0.341l-0.763,1.37C37.958,56.201,37.875,56.25,37.784,56.25z"/></g><g><path fill="#472b29" d="M30,56.25h-6.531c-0.089,0-0.17-0.047-0.215-0.123c-0.045-0.077-0.046-0.171-0.003-0.249l4.61-8.275 c0.067-0.121,0.219-0.165,0.34-0.097c0.121,0.067,0.164,0.22,0.097,0.341l-4.403,7.903H30c0.138,0,0.25,0.112,0.25,0.25 S30.138,56.25,30,56.25z"/></g><g><path fill="#472b29" d="M29.162,46.03c-0.042,0-0.083-0.01-0.122-0.031c-0.121-0.067-0.164-0.22-0.097-0.341l0.992-1.78 c0.044-0.079,0.127-0.128,0.218-0.128h10.034c0.138,0,0.25,0.112,0.25,0.25s-0.112,0.25-0.25,0.25h-9.887l-0.921,1.652 C29.334,45.984,29.249,46.03,29.162,46.03z"/></g><g><path fill="#472b29" d="M43.162,46.597c-0.042,0-0.083-0.01-0.122-0.031c-0.121-0.067-0.164-0.22-0.097-0.341l1.1-1.975 h-1.95c-0.138,0-0.25-0.112-0.25-0.25s0.112-0.25,0.25-0.25h2.375c0.089,0,0.17,0.047,0.215,0.123 c0.045,0.077,0.046,0.171,0.003,0.249l-1.307,2.347C43.334,46.551,43.249,46.597,43.162,46.597z"/></g><g><path fill="#9f8066" d="M60.604,59.75c-1.674,0-3.24-0.785-4.411-2.21c-0.048-0.06-0.12-0.092-0.193-0.092 c-0.028,0-0.057,0.005-0.084,0.015c-0.099,0.035-0.166,0.13-0.166,0.235v2.052h-2.5v-19.5h2.5v7.052 c0,0.105,0.066,0.2,0.166,0.235c0.028,0.01,0.056,0.015,0.084,0.015c0.073,0,0.145-0.032,0.193-0.092 c1.17-1.425,2.737-2.21,4.411-2.21c3.389,0,6.146,3.252,6.146,7.25S63.993,59.75,60.604,59.75z M60,47.25 c-2.343,0-4.25,2.355-4.25,5.25s1.907,5.25,4.25,5.25s4.25-2.355,4.25-5.25S62.343,47.25,60,47.25z"/><path fill="#472b29" d="M55.5,40.5v6.802c0,0.211,0.133,0.4,0.331,0.471c0.055,0.02,0.112,0.029,0.168,0.029 c0.147,0,0.29-0.065,0.386-0.183c1.122-1.367,2.62-2.119,4.218-2.119c3.251,0,5.896,3.14,5.896,7s-2.645,7-5.896,7 c-1.598,0-3.095-0.753-4.218-2.119c-0.097-0.118-0.24-0.183-0.386-0.183c-0.056,0-0.113,0.01-0.168,0.029 c-0.199,0.071-0.331,0.26-0.331,0.471V59.5h-2v-19H55.5 M60,58c2.481,0,4.5-2.467,4.5-5.5S62.481,47,60,47s-4.5,2.467-4.5,5.5 S57.519,58,60,58 M56,40h-3v20h3v-2.302C57.164,59.115,58.794,60,60.604,60C64.136,60,67,56.642,67,52.5S64.136,45,60.604,45 c-1.81,0-3.441,0.885-4.604,2.302V40L56,40z M60,57.5c-2.209,0-4-2.239-4-5s1.791-5,4-5s4,2.239,4,5S62.209,57.5,60,57.5L60,57.5z"/></g><g><path fill="#fdfcef" d="M44.5,66.5c0,0,1.567,0,3.5,0s3.5-1.567,3.5-3.5c0-1.781-1.335-3.234-3.055-3.455 C48.473,59.366,48.5,59.187,48.5,59c0-1.933-1.567-3.5-3.5-3.5c-1.032,0-1.95,0.455-2.59,1.165 c-0.384-1.808-1.987-3.165-3.91-3.165c-2.209,0-4,1.791-4,4c0,0.191,0.03,0.374,0.056,0.558C34.128,57.714,33.592,57.5,33,57.5 c-1.228,0-2.245,0.887-2.455,2.055C30.366,59.527,30.187,59.5,30,59.5c-1.933,0-3.5,1.567-3.5,3.5s1.567,3.5,3.5,3.5s7.5,0,7.5,0 V67h7V66.5z"/><path fill="#472b29" d="M46.25,62C46.112,62,46,61.888,46,61.75c0-1.223,0.995-2.218,2.218-2.218 c0.034,0.009,0.737-0.001,1.244,0.136c0.133,0.036,0.212,0.173,0.176,0.306c-0.036,0.134-0.173,0.213-0.306,0.176 c-0.444-0.12-1.1-0.12-1.113-0.118c-0.948,0-1.719,0.771-1.719,1.718C46.5,61.888,46.388,62,46.25,62z"/><circle cx="39.5" cy="66.5" r=".5" fill="#472b29"/><path fill="#472b29" d="M48,67h-3.5c-0.276,0-0.5-0.224-0.5-0.5s0.224-0.5,0.5-0.5H48c1.654,0,3-1.346,3-3 c0-1.496-1.125-2.768-2.618-2.959c-0.134-0.018-0.255-0.088-0.336-0.196s-0.115-0.244-0.094-0.377C47.975,59.314,48,59.16,48,59 c0-1.654-1.346-3-3-3c-0.85,0-1.638,0.355-2.219,1c-0.125,0.139-0.321,0.198-0.5,0.148c-0.182-0.049-0.321-0.195-0.36-0.379 C41.58,55.165,40.141,54,38.5,54c-1.93,0-3.5,1.57-3.5,3.5c0,0.143,0.021,0.28,0.041,0.418c0.029,0.203-0.063,0.438-0.242,0.54 c-0.179,0.102-0.396,0.118-0.556-0.01C33.878,58.155,33.449,58,33,58c-0.966,0-1.792,0.691-1.963,1.644 c-0.048,0.267-0.296,0.446-0.569,0.405C30.314,60.025,30.16,60,30,60c-1.654,0-3,1.346-3,3s1.346,3,3,3h7.5 c0.276,0,0.5,0.224,0.5,0.5S37.776,67,37.5,67H30c-2.206,0-4-1.794-4-4s1.794-4,4-4c0.059,0,0.116,0.002,0.174,0.006 C30.588,57.82,31.711,57,33,57c0.349,0,0.689,0.061,1.011,0.18C34.176,54.847,36.126,53,38.5,53c1.831,0,3.466,1.127,4.153,2.774 C43.333,55.276,44.155,55,45,55c2.206,0,4,1.794,4,4c0,0.048-0.001,0.095-0.004,0.142C50.739,59.59,52,61.169,52,63 C52,65.206,50.206,67,48,67z"/><path fill="#472b29" d="M42.5,66c-0.159,0-0.841,0-1,0c-0.276,0-0.5,0.224-0.5,0.5c0,0.276,0.224,0.5,0.5,0.5 c0.159,0,0.841,0,1,0c0.276,0,0.5-0.224,0.5-0.5C43,66.224,42.776,66,42.5,66z"/></g></svg>